<svg xmlns="http://www.w3.org/2000/svg" width="1024" height="1024" viewBox="0 0 1024 1024">
<g>
<path d="M 334.50 792.10 C322.13,793.97 286.67,795.42 278.00,794.42 C276.08,794.19 270.23,793.54 265.00,792.96 C161.96,781.53 71.77,712.54 33.66,616.00 C-7.60,511.48 16.91,392.36 96.00,313.00 C124.36,284.54 156.14,263.85 194.94,248.56 C245.08,228.81 307.10,224.69 361.62,237.49 C401.09,246.75 440.91,266.10 473.00,291.60 C486.12,302.02 510.48,327.08 520.56,340.50 C534.76,359.41 547.29,380.75 555.51,400.00 C602.11,509.15 576.79,633.97 491.40,716.02 C448.40,757.34 395.84,782.83 334.50,792.10 ZM 760.36 779.50 C751.62,781.30 737.74,781.29 729.47,779.47 C676.17,767.76 630.93,704.20 611.07,613.12 C590.19,517.31 600.63,408.21 638.03,331.50 C659.87,286.71 687.59,258.52 720.74,247.38 C731.18,243.87 751.07,242.92 762.13,245.40 C816.62,257.62 862.28,324.55 880.89,419.50 C887.25,451.91 889.43,475.51 889.45,512.00 C889.47,548.09 887.25,572.19 880.97,604.00 C861.91,700.60 815.51,768.10 760.36,779.50 ZM 962.38 753.04 C958.35,754.58 956.52,754.20 951.36,750.75 C933.94,739.11 918.96,689.06 911.51,617.65 C907.81,582.18 906.73,558.54 906.71,512.50 C906.69,457.77 908.72,423.84 914.54,381.51 C922.18,326.05 935.52,285.09 949.40,274.51 C953.89,271.08 960.45,270.14 964.66,272.32 C981.41,280.98 996.93,329.86 1004.89,399.00 C1009.47,438.82 1010.41,458.04 1010.41,512.00 C1010.41,572.95 1008.58,602.13 1001.91,647.50 C993.01,708.09 978.46,746.93 962.38,753.04 Z" fill="rgb(13,13,13)" data-index="0" style="opacity: 1;"></path>

</g>
</svg>