<svg width="44" height="44" viewBox="0 0 44 44" fill="none" xmlns="http://www.w3.org/2000/svg">
<path d="M9.83305 33.4672C9.77149 33.4339 9.70994 33.4005 9.64651 33.3661C9.20412 33.1166 9.20412 33.1166 9.10795 32.8281C9.05655 32.8157 9.00515 32.8033 8.95219 32.7905C8.16706 32.5886 7.36799 31.0788 6.95952 30.4218C6.44189 29.5221 6.13151 28.5994 5.92827 27.5859C5.916 27.5275 5.90373 27.469 5.89109 27.4089C5.60229 26.0288 5.4509 24.6047 5.67045 23.2031C5.68065 23.1096 5.69084 23.0161 5.70134 22.9198C5.84611 21.6399 6.16855 20.4232 6.7017 19.25C6.79139 19.037 6.88091 18.8239 6.97026 18.6108C7.11749 18.261 7.27467 17.9392 7.47514 17.6171C7.55275 17.4796 7.62977 17.3418 7.7061 17.2036C7.74365 17.1357 7.78121 17.0678 7.8199 16.9978C7.84793 16.9469 7.87595 16.8961 7.90483 16.8437C7.96155 16.8437 8.01827 16.8437 8.0767 16.8437C8.16178 16.5885 8.16178 16.5885 8.24858 16.3281C8.3053 16.3281 8.36202 16.3281 8.42045 16.3281C8.44953 16.2382 8.44953 16.2382 8.4792 16.1465C8.61722 15.8438 8.81015 15.6143 9.02739 15.3667C9.06971 15.3176 9.11202 15.2686 9.15562 15.2181C9.28232 15.0719 9.40987 14.9265 9.53764 14.7812C9.604 14.7051 9.67035 14.629 9.73872 14.5506C11.161 12.9432 12.758 11.6806 14.6017 10.591C14.7848 10.4814 14.9655 10.3685 15.1461 10.2547C15.3726 10.1125 15.5988 9.97624 15.8379 9.85591C15.8925 9.82788 15.9472 9.79985 16.0034 9.77098C16.1548 9.71089 16.1548 9.71089 16.4126 9.71089C16.4126 9.65417 16.4126 9.59745 16.4126 9.53901C16.5544 9.53901 16.6962 9.53901 16.8423 9.53901C16.8651 9.58665 16.888 9.63428 16.9115 9.68336C16.9418 9.74562 16.9722 9.80788 17.0035 9.87202C17.0334 9.93384 17.0633 9.99565 17.0941 10.0593C17.1984 10.2489 17.3291 10.3719 17.4875 10.5172C17.6266 10.6679 17.6947 10.8022 17.7769 10.9892C17.9351 11.3216 18.1152 11.5298 18.3892 11.7734C18.2985 12.0579 18.211 12.1208 17.9464 12.2732C17.8385 12.3243 17.73 12.3743 17.6211 12.4233C17.1456 12.6368 17.1456 12.6368 16.7564 12.9765C16.6143 13.0643 16.4708 13.1498 16.3267 13.2343C16.19 13.3211 16.054 13.4089 15.9185 13.4975C15.8516 13.541 15.7847 13.5846 15.7157 13.6294C15.5426 13.7389 15.5426 13.7389 15.4673 13.9218C15.4106 13.9218 15.3539 13.9218 15.2955 13.9218C15.2955 13.9785 15.2955 14.0353 15.2955 14.0937C15.1813 14.2058 15.1813 14.2058 15.0162 14.3408C14.1685 15.0654 13.4387 15.8393 12.8033 16.7578C12.7388 16.8485 12.6743 16.9392 12.6079 17.0327C11.6387 18.4349 11.1806 20.0242 10.783 21.6644C10.7463 21.8066 10.7013 21.9466 10.6548 22.0859C10.7069 22.0631 10.759 22.0402 10.8126 22.0167C12.4346 21.333 14.23 21.4151 15.8772 21.9983C16.0611 22.0772 16.236 22.1639 16.4126 22.2578C16.5719 22.3366 16.7313 22.4154 16.8907 22.4941C17.0179 22.5584 17.145 22.6228 17.272 22.6875C17.272 22.7442 17.272 22.8009 17.272 22.8593C17.3339 22.8802 17.3959 22.901 17.4597 22.9224C18.065 23.1944 18.5781 23.7515 18.9048 24.3203C18.9378 24.3691 18.9709 24.418 19.0049 24.4683C19.4796 25.1775 19.8004 25.9704 19.9361 26.8125C19.9549 26.9102 19.9737 27.0079 19.9931 27.1085C20.296 28.9436 19.7266 30.6113 18.6849 32.1184C17.9522 33.1246 16.9959 33.8215 15.8111 34.2031C15.7225 34.2332 15.6338 34.2633 15.5425 34.2944C13.4947 34.7898 11.6618 34.4669 9.83305 33.4672Z" fill="#FF4F00"/>
<path d="M27.7571 33.2579C27.386 32.9731 27.0396 32.6596 26.7259 32.3126C26.7259 32.2559 26.7259 32.1992 26.7259 32.1407C26.6505 32.1098 26.6505 32.1098 26.5735 32.0783C26.3441 31.9471 26.2293 31.8033 26.0706 31.5929C25.9945 31.4935 25.9945 31.4935 25.9169 31.3921C25.7938 31.2146 25.7035 31.0451 25.6087 30.8517C25.5533 30.7603 25.4979 30.6689 25.4409 30.5747C24.9129 29.7006 24.5811 28.8291 24.3196 27.8439C24.2914 27.7394 24.2631 27.6349 24.234 27.5273C23.9581 26.3854 23.9699 25.2147 23.9651 24.0465C23.9645 23.9217 23.9645 23.9217 23.9639 23.7944C23.9659 22.9442 24.134 22.1684 24.3358 21.3448C24.3597 21.2422 24.3837 21.1395 24.4084 21.0337C24.5646 20.3975 24.7721 19.825 25.061 19.2368C25.1706 19.0098 25.2635 18.7828 25.3509 18.5465C25.5287 18.0897 25.7778 17.687 26.0384 17.2736C26.1926 17.0197 26.3392 16.7678 26.4681 16.5001C26.5248 16.5001 26.5815 16.5001 26.64 16.5001C26.657 16.4434 26.6741 16.3867 26.6917 16.3282C26.8602 15.9666 27.1046 15.6875 27.3597 15.3829C27.4588 15.263 27.558 15.143 27.6571 15.0231C27.7041 14.9666 27.7511 14.9102 27.7995 14.852C27.909 14.7196 28.0164 14.5855 28.1234 14.451C28.3021 14.2294 28.4987 14.0348 28.7025 13.8361C28.7645 13.7722 28.8265 13.7084 28.8904 13.6427C30.2766 12.2874 31.841 11.187 33.5203 10.2267C33.6084 10.1761 33.6965 10.1254 33.7872 10.0733C33.9118 10.003 33.9118 10.003 34.039 9.93127C34.1513 9.86763 34.1513 9.86763 34.2659 9.8027C34.4603 9.71106 34.4603 9.71106 34.7181 9.71106C34.7181 9.65434 34.7181 9.59762 34.7181 9.53918C34.9161 9.51669 34.9161 9.51669 35.1478 9.53918C35.2935 9.69327 35.2935 9.69327 35.4163 9.89905C35.4593 9.9695 35.5023 10.04 35.5466 10.1125C35.5851 10.1786 35.6237 10.2446 35.6634 10.3126C35.7166 10.3959 35.7697 10.4792 35.8245 10.5651C35.9212 10.7423 35.9212 10.7423 35.9212 10.9142C35.9779 10.9142 36.0346 10.9142 36.0931 10.9142C36.1813 11.056 36.2669 11.1995 36.3509 11.3439C36.397 11.3882 36.4431 11.4325 36.4905 11.4781C36.6332 11.6273 36.66 11.7447 36.6946 11.9454C36.4248 12.1873 36.1424 12.3613 35.8245 12.5309C35.2107 12.8589 34.5978 13.2037 34.0682 13.6588C33.8587 13.8361 33.8587 13.8361 33.6868 13.8361C33.6671 13.8848 33.6474 13.9335 33.6271 13.9838C33.4855 14.2312 33.3112 14.3801 33.096 14.5665C32.8788 14.7559 32.6668 14.9416 32.4669 15.1493C32.3118 15.297 32.3118 15.297 32.14 15.297C32.14 15.3537 32.14 15.4104 32.14 15.4689C32.0832 15.5256 32.0265 15.5823 31.9681 15.6407C31.9114 15.7152 31.8546 15.7896 31.7962 15.8663C31.7395 15.9337 31.6828 16.001 31.6243 16.0704C31.5676 16.0704 31.5109 16.0704 31.4525 16.0704C31.4418 16.1218 31.4312 16.1732 31.4202 16.2262C31.3665 16.4142 31.3665 16.4142 31.1946 16.672C31.1379 16.672 31.0812 16.672 31.0228 16.672C31.0174 16.7305 31.0121 16.789 31.0067 16.8492C30.9313 17.1215 30.8045 17.2866 30.6377 17.5106C29.7371 18.8395 29.3578 20.4495 29.0462 22.0001C29.0911 21.9835 29.1359 21.9669 29.1822 21.9498C31.0731 21.2808 33.0639 21.4555 34.8725 22.2855C36.4639 23.12 37.6176 24.5044 38.1556 26.2111C38.5201 27.5024 38.6179 29.0416 37.9891 30.277C37.9595 30.3284 37.9299 30.3798 37.8994 30.4327C37.7982 30.6189 37.7323 30.8078 37.6614 31.0074C37.4558 31.535 37.1272 31.9556 36.7806 32.3986C36.7168 32.4872 36.653 32.5758 36.5872 32.6671C34.2953 35.0632 30.4089 35.0279 27.7571 33.2579Z" fill="#FF4F00"/>
</svg>
